<?xml version="1.0" standalone="no"?>
<!DOCTYPE svg PUBLIC "-//W3C//DTD SVG 20010904//EN"
 "http://www.w3.org/TR/2001/REC-SVG-20010904/DTD/svg10.dtd">
<svg version="1.0" xmlns="http://www.w3.org/2000/svg"
 width="863.000000pt" height="863.000000pt" viewBox="0 0 863.000000 863.000000"
 preserveAspectRatio="xMidYMid meet">
<metadata>
Created by potrace 1.11, written by Peter Selinger 2001-2013
</metadata>
<g transform="translate(0.000000,863.000000) scale(0.100000,-0.100000)"
fill="#000000" stroke="none">
<path d="M4050 7845 c0 -11 18 -77 39 -145 87 -280 164 -446 356 -775 29 -49
100 -173 159 -275 58 -102 110 -192 115 -200 20 -31 147 -246 157 -265 6 -11
42 -72 80 -135 37 -63 83 -142 101 -175 19 -33 42 -73 52 -90 36 -60 181 -307
395 -675 75 -129 140 -242 145 -250 17 -26 103 -173 121 -204 9 -17 40 -69 67
-116 28 -47 60 -101 70 -120 11 -19 107 -183 213 -365 106 -181 201 -343 210
-360 9 -16 40 -68 67 -115 28 -47 60 -101 70 -120 11 -19 52 -90 92 -157 39
-67 71 -126 71 -131 0 -6 4 -12 8 -14 5 -1 25 -32 45 -68 l36 -65 -232 -2
c-128 -1 -237 1 -243 5 -6 4 -46 68 -89 142 -43 74 -106 182 -140 240 -76 129
-324 554 -554 950 -94 162 -176 302 -181 310 -20 33 -108 182 -170 290 -88
151 -364 625 -450 770 -70 119 -215 370 -234 405 -6 11 -19 31 -27 45 -9 14
-49 81 -89 150 -186 318 -263 438 -349 544 -75 93 -287 312 -295 305 -9 -8 58
-242 104 -364 62 -166 150 -332 394 -745 18 -30 84 -143 146 -250 98 -168 230
-395 345 -590 18 -30 42 -71 53 -90 11 -19 66 -114 122 -210 57 -96 187 -319
290 -495 224 -385 290 -498 311 -533 9 -15 56 -97 106 -182 159 -275 304 -523
354 -607 27 -45 49 -84 49 -88 0 -3 -107 -5 -237 -5 l-238 0 -55 93 c-30 50
-83 142 -119 202 -35 61 -72 125 -82 143 -11 17 -28 47 -38 66 -10 18 -39 66
-64 107 -24 41 -124 211 -222 379 -97 168 -189 325 -205 350 -15 25 -103 176
-195 335 -93 160 -219 376 -280 480 -62 105 -163 278 -225 385 -295 508 -339
579 -439 705 -38 46 -262 265 -272 265 -5 0 -7 -12 -3 -27 29 -131 60 -239 95
-333 l41 -112 -107 -187 c-59 -102 -112 -191 -119 -196 -6 -6 -12 -17 -14 -25
-2 -8 -44 -84 -94 -170 -131 -225 -159 -274 -223 -385 -32 -55 -110 -190 -173
-300 -93 -160 -328 -567 -422 -730 -9 -16 -68 -118 -130 -225 -62 -107 -121
-208 -130 -225 -10 -16 -100 -172 -200 -345 -101 -173 -196 -340 -213 -370
-16 -30 -33 -59 -37 -65 -5 -5 -59 -98 -120 -205 -575 -997 -579 -1004 -680
-1310 -32 -96 -61 -190 -65 -208 -6 -31 -5 -32 12 -21 27 18 203 212 284 314
79 99 202 282 259 384 20 36 70 122 110 191 40 69 86 148 102 175 16 28 33 57
38 65 9 13 146 252 205 355 12 22 82 144 155 270 73 127 141 244 150 260 9 17
32 55 50 85 18 30 48 82 66 115 19 33 38 59 44 57 7 -1 9 2 5 8 -3 5 38 85 91
177 53 93 108 188 122 212 14 25 38 68 55 95 16 28 37 65 47 81 9 17 59 102
110 190 51 88 141 243 200 345 59 102 183 316 275 475 92 160 179 310 193 335
14 25 29 50 34 57 5 7 18 27 27 45 10 18 31 56 47 83 16 28 65 113 108 188 43
76 82 134 86 130 4 -4 59 -97 123 -205 l115 -196 -23 -39 c-13 -21 -36 -61
-51 -88 -37 -66 -222 -385 -234 -405 -9 -14 -82 -141 -132 -230 -11 -19 -35
-60 -53 -90 -18 -30 -52 -89 -75 -130 -24 -41 -54 -92 -67 -112 -12 -21 -23
-40 -23 -43 0 -2 -28 -53 -63 -112 -35 -60 -126 -216 -202 -348 -76 -132 -186
-321 -243 -420 -58 -99 -147 -252 -197 -340 -50 -88 -183 -317 -295 -510 -112
-192 -239 -413 -283 -490 -44 -77 -91 -158 -104 -180 -28 -47 -130 -251 -156
-312 -48 -111 -143 -431 -131 -442 5 -5 161 142 177 168 5 7 31 37 56 65 82
91 211 274 278 396 16 30 79 138 138 240 101 173 153 263 433 748 60 103 144
248 187 322 43 74 90 155 104 180 14 25 79 137 144 250 66 113 131 225 145
250 35 63 172 300 191 330 9 14 21 34 27 45 57 106 179 311 185 313 5 2 9 8 9
14 0 23 132 238 143 231 6 -3 7 -1 3 6 -7 10 138 276 234 430 l27 43 50 -83
c28 -46 62 -104 75 -129 14 -25 45 -79 70 -121 l45 -76 -155 -269 c-85 -148
-162 -282 -172 -299 -9 -16 -68 -118 -130 -225 -62 -107 -121 -209 -130 -226
-10 -16 -53 -91 -96 -165 -43 -74 -94 -163 -114 -199 -69 -123 -113 -195 -124
-202 -6 -4 -8 -8 -4 -8 3 0 -23 -51 -59 -113 -36 -61 -74 -126 -83 -143 -10
-17 -85 -146 -166 -285 -81 -140 -190 -328 -242 -419 -52 -91 -116 -201 -142
-245 -146 -250 -216 -389 -259 -514 -23 -66 -65 -227 -77 -295 l-7 -39 30 21
c40 28 252 249 283 294 15 22 34 38 50 40 14 2 1044 5 2290 6 1246 1 2373 5
2505 8 246 5 439 22 580 50 102 20 285 63 305 71 34 13 -339 93 -535 115 -97
10 -585 12 -2564 9 l-2444 -4 27 44 c15 24 68 117 119 206 51 89 99 164 108
166 9 2 940 5 2070 6 1265 1 2114 5 2209 12 171 11 272 26 430 65 171 42 190
47 190 53 0 16 -310 88 -485 113 -71 9 -543 11 -2183 9 l-2093 -3 33 59 c148
264 204 352 227 356 13 3 801 5 1750 6 1811 1 1861 2 2026 30 103 18 355 89
355 101 0 16 -307 96 -409 106 -73 8 -62 -5 -207 247 -43 76 -86 151 -96 166
-9 16 -71 122 -139 237 -67 115 -185 317 -262 449 -182 313 -167 287 -227 390
-29 50 -68 116 -86 148 -19 31 -49 83 -68 115 -18 31 -61 104 -94 161 -34 57
-58 109 -55 115 3 6 3 8 -2 4 -11 -10 -147 223 -140 240 3 7 1 11 -4 7 -13 -7
-54 62 -45 76 4 7 3 9 -3 6 -5 -3 -32 33 -60 81 -28 48 -82 141 -120 207 -39
66 -128 219 -198 340 -145 249 -307 525 -371 633 -24 40 -44 74 -44 77 0 2
-23 41 -51 86 -27 45 -51 87 -52 93 -1 5 -9 18 -18 28 -9 10 -22 31 -30 46
-27 51 -161 277 -206 347 -74 114 -182 254 -259 340 -176 194 -203 221 -204
200z m371 -3548 c38 -65 69 -122 69 -127 0 -4 4 -10 8 -12 7 -3 83 -131 164
-277 17 -29 52 -89 79 -133 27 -44 49 -81 49 -83 0 -2 28 -50 61 -107 34 -56
70 -116 79 -133 10 -16 41 -70 70 -120 125 -214 160 -274 160 -279 0 -4 -373
-6 -830 -6 -456 0 -830 2 -830 4 0 2 20 39 45 80 25 42 45 78 45 81 0 2 23 40
50 85 28 45 50 83 50 86 0 2 19 37 43 77 24 39 75 126 112 192 38 66 73 122
77 123 4 2 8 8 8 13 0 6 59 112 131 237 72 125 139 241 149 258 113 197 114
197 128 178 7 -11 45 -72 83 -137z"/>
</g>
</svg>
